<?xml version="1.0" encoding="iso-8859-1"?>
<!-- Generator: Adobe Illustrator 19.0.0, SVG Export Plug-In . SVG Version: 6.00 Build 0)  -->
<svg xmlns="http://www.w3.org/2000/svg" xmlns:xlink="http://www.w3.org/1999/xlink" version="1.1" id="Capa_1" x="0px" y="0px" viewBox="0 0 64 64" style="enable-background:new 0 0 64 64;" xml:space="preserve" width="512px" height="512px">
<g>
	<path d="M53.757,34.343l-4.468-4.468C51.671,27.163,53,23.914,53,20.5c0-2.25-0.58-4.395-1.623-6.352   c1.049-1.503,1.626-3.308,1.626-5.148c0-4.962-4.037-9-9-9c-3.155,0-6.062,1.666-7.69,4.353C34.92,4.124,33.479,4,32,4   c-1.477,0-2.918,0.123-4.31,0.353C26.062,1.666,23.156,0,20.001,0c-4.963,0-9,4.038-9,9c0,1.84,0.576,3.644,1.623,5.147   c-1.043,1.957-1.623,4.102-1.623,6.353c0,3.414,1.328,6.663,3.711,9.375l-4.468,4.468c-2.332,2.331-2.996,5.672-1.734,8.718   c0.855,2.065,2.442,3.581,4.396,4.355l-0.667,3.556c-0.606,3.227,0.25,6.526,2.346,9.052c1.92,2.313,4.671,3.709,7.642,3.93   C22.481,63.983,22.739,64,23.001,64c0.009,0,0.017-0.001,0.025-0.001S23.042,64,23.049,64h17.902c0.008,0,0.015-0.001,0.023-0.001   C40.982,63.999,40.99,64,41,64c0.262,0,0.52-0.017,0.774-0.045c2.971-0.221,5.722-1.617,7.642-3.93   c2.096-2.525,2.951-5.825,2.346-9.052l-0.667-3.556c1.954-0.774,3.541-2.29,4.396-4.355C56.753,40.015,56.089,36.674,53.757,34.343   z M44.003,2c3.859,0,7,3.14,7,7c0,1.165-0.287,2.276-0.823,3.278c-0.436-0.593-0.92-1.159-1.443-1.702   c0.169-0.507,0.266-1.037,0.266-1.576c0-2.757-2.243-5-5-5c-1.311,0-2.561,0.52-3.492,1.429c-0.683-0.239-1.382-0.455-2.101-0.637   C39.722,3.05,41.788,2,44.003,2z M42.68,6.318C43.088,6.116,43.538,6,44.003,6C45.649,6,46.987,7.332,47,8.975   C45.72,7.946,44.264,7.057,42.68,6.318z M13.001,9c0-3.86,3.141-7,7-7c2.215,0,4.28,1.05,5.592,2.792   c-0.719,0.182-1.418,0.398-2.101,0.637C22.56,4.52,21.31,4,20.001,4c-2.757,0-5,2.243-5,5c0,0.538,0.097,1.068,0.265,1.574   c-0.524,0.544-1.008,1.11-1.444,1.703C13.287,11.275,13.001,10.165,13.001,9z M17.003,8.972C17.019,7.331,18.356,6,20.001,6   c0.465,0,0.914,0.116,1.322,0.318C19.74,7.056,18.284,7.944,17.003,8.972z M32,6c10.477,0,19,6.505,19,14.5   c0,4.566-2.813,8.833-7.573,11.575c-0.589-0.526-1.238-0.953-1.928-1.277c0.327-0.9,0.501-1.837,0.501-2.798c0-4.962-4.486-9-10-9   s-10,4.038-10,9c0,0.961,0.174,1.898,0.501,2.798c-0.69,0.325-1.34,0.751-1.928,1.277c-4.76-2.742-7.573-7.008-7.573-11.575   C13.001,12.505,21.524,6,32,6z M43.846,39H41.5c-2.481,0-4.5,2.019-4.5,4.5c0,0.948,0.298,1.826,0.801,2.553L32,51.615   l-5.801-5.562C26.702,45.327,27,44.449,27,43.501c0-2.481-2.019-4.5-4.5-4.5h-2.345c-0.441-1.891,0.145-3.912,1.597-5.303   c2.358-2.262,6.201-2.263,8.561,0l0.994,0.954c0.387,0.371,0.998,0.371,1.385,0l0.994-0.954c2.359-2.262,6.202-2.262,8.562,0   C43.7,35.088,44.287,37.109,43.846,39z M24.001,28c0-3.86,3.589-7,8-7s8,3.14,8,7c0,0.746-0.14,1.473-0.401,2.171   c-2.555-0.506-5.318,0.186-7.297,2.082l-0.302,0.29l-0.302-0.29c-1.979-1.897-4.742-2.588-7.297-2.082   C24.141,29.473,24.001,28.746,24.001,28z M10.357,42.296c-0.946-2.285-0.448-4.79,1.301-6.539l4.459-4.46   c0.936,0.848,1.984,1.628,3.143,2.322c-1.041,1.597-1.451,3.513-1.136,5.381h-2.123v2h6.5c1.379,0,2.5,1.122,2.5,2.5   s-1.121,2.5-2.5,2.5H15.9C13.427,46,11.303,44.581,10.357,42.296z M18.001,57c0-2.757,2.243-5,5-5s5,2.243,5,5   c0,2.751-2.234,4.989-4.983,4.998c-0.025,0-0.05-0.004-0.076-0.004C20.213,61.962,18.001,59.737,18.001,57z M41.059,61.994   c-0.025,0-0.05,0.004-0.076,0.004C38.234,61.988,36,59.751,36,57c0-2.757,2.243-5,5-5c2.757,0,5,2.243,5,5   C46,59.737,43.788,61.962,41.059,61.994z M49.797,51.342c0.495,2.64-0.205,5.339-1.92,7.406c-0.047,0.056-0.1,0.105-0.148,0.16   C47.902,58.301,48,57.662,48,57c0-3.859-3.141-7-7-7s-7,3.141-7,7c0,1.958,0.81,3.728,2.111,5H27.89c1.3-1.272,2.111-3.042,2.111-5   c0-3.859-3.141-7-7-7s-7,3.141-7,7c0,0.662,0.098,1.3,0.271,1.908c-0.048-0.055-0.101-0.103-0.148-0.16   c-1.715-2.067-2.415-4.767-1.92-7.406l0.641-3.418C15.191,47.968,15.541,48,15.9,48h6.601c0.807,0,1.554-0.231,2.21-0.604   l6.598,6.326C31.502,53.907,31.752,54,32,54c0.249,0,0.499-0.093,0.692-0.278l6.598-6.326C39.946,47.769,40.694,48,41.5,48h6.601   c0.359,0,0.709-0.032,1.056-0.076L49.797,51.342z M53.644,42.296C52.698,44.581,50.574,46,48.101,46H41.5   c-1.379,0-2.5-1.122-2.5-2.5s1.121-2.5,2.5-2.5H48v-2h-2.123c0.315-1.868-0.095-3.784-1.136-5.381   c1.158-0.694,2.207-1.473,3.143-2.322l4.459,4.46C54.092,37.506,54.59,40.011,53.644,42.296z" fill="#788684"/>
	<ellipse cx="32" cy="24" rx="2" ry="1" fill="#788684"/>
	<circle cx="26.001" cy="18" r="1" fill="#788684"/>
	<circle cx="38" cy="18" r="1" fill="#788684"/>
	<rect x="31.001" y="37" width="2" height="2" fill="#788684"/>
	<rect x="35" y="37" width="2" height="2" fill="#788684"/>
	<rect x="27.001" y="37" width="2" height="2" fill="#788684"/>
</g>
<g>
</g>
<g>
</g>
<g>
</g>
<g>
</g>
<g>
</g>
<g>
</g>
<g>
</g>
<g>
</g>
<g>
</g>
<g>
</g>
<g>
</g>
<g>
</g>
<g>
</g>
<g>
</g>
<g>
</g>
</svg>
