<?xml version="1.0" encoding="iso-8859-1"?>
<!-- Generator: Adobe Illustrator 16.0.0, SVG Export Plug-In . SVG Version: 6.00 Build 0)  -->
<!DOCTYPE svg PUBLIC "-//W3C//DTD SVG 1.1//EN" "http://www.w3.org/Graphics/SVG/1.1/DTD/svg11.dtd">
<svg xmlns="http://www.w3.org/2000/svg" xmlns:xlink="http://www.w3.org/1999/xlink" version="1.1" id="Capa_1" x="0px" y="0px" width="512px" height="512px" viewBox="0 0 65.403 65.402" style="enable-background:new 0 0 65.403 65.402;" xml:space="preserve">
<g>
	<path d="M32.702,0C14.641,0,0,14.641,0,32.701c0,18.062,14.639,32.701,32.702,32.701c18.062,0,32.701-14.64,32.701-32.701   C65.403,14.641,50.763,0,32.702,0z M41.935,18.116c0.404-1.117,1.658-1.681,1.658-1.681s0.596,1.235,0.192,2.354   C43.377,19.903,41.53,19.229,41.935,18.116z M37.85,23.666c0.736-2.035,2.57-3.237,4.09-2.681c1.52,0.551,2.153,2.649,1.414,4.681   c-0.739,2.035-2.57,3.236-4.088,2.681C37.745,27.793,37.113,25.696,37.85,23.666z M32.82,12.312c0,0,1.096,1.065,1.096,2.385   c0,1.313-2.189,1.313-2.189,0C31.728,13.379,32.82,12.312,32.82,12.312z M32.82,17.684c1.796,0,3.252,1.949,3.252,4.348   s-1.458,4.347-3.252,4.347c-1.793,0-3.253-1.948-3.253-4.347S31.027,17.684,32.82,17.684z M23.463,16.241   c0,0,1.184,0.696,1.471,1.845c0.288,1.149-1.625,1.623-1.908,0.474C22.739,17.411,23.463,16.241,23.463,16.241z M24.626,20.938   c1.569-0.393,3.266,1,3.787,3.095c0.521,2.098-0.33,4.117-1.899,4.507s-3.263-0.997-3.787-3.096   C22.208,23.342,23.06,21.326,24.626,20.938z M15.101,25.03c-0.502-0.856-0.194-1.973-0.194-1.973s1.121,0.28,1.622,1.139   C17.031,25.059,15.604,25.89,15.101,25.03z M16.956,26.567c1.173-0.684,2.868,0.033,3.784,1.603s0.706,3.396-0.469,4.081   c-1.176,0.683-2.866-0.036-3.782-1.605C15.573,29.077,15.781,27.252,16.956,26.567z M45.791,52.435   c-4.93,2.651-5.237-3.624-12.362-3.624c-7.129,0-11.532,5.055-15.68-1.839c-3.004-4.991,4.167-12.788,14.98-13.572   C46.595,32.389,50.955,49.656,45.791,52.435z M49.294,30.582c-0.828,1.618-2.478,2.428-3.687,1.812   c-1.214-0.622-1.523-2.432-0.693-4.047c0.823-1.618,2.475-2.432,3.687-1.812C49.81,27.154,50.12,28.961,49.294,30.582z    M50.367,24.898c-0.454,0.883-1.926,0.132-1.474-0.753c0.451-0.887,1.556-1.23,1.556-1.23S50.816,24.009,50.367,24.898z" fill="#788684"/>
</g>
<g>
</g>
<g>
</g>
<g>
</g>
<g>
</g>
<g>
</g>
<g>
</g>
<g>
</g>
<g>
</g>
<g>
</g>
<g>
</g>
<g>
</g>
<g>
</g>
<g>
</g>
<g>
</g>
<g>
</g>
</svg>
