<?xml version="1.0" encoding="iso-8859-1"?>
<!-- Generator: Adobe Illustrator 16.0.0, SVG Export Plug-In . SVG Version: 6.00 Build 0)  -->
<!DOCTYPE svg PUBLIC "-//W3C//DTD SVG 1.1//EN" "http://www.w3.org/Graphics/SVG/1.1/DTD/svg11.dtd">
<svg xmlns="http://www.w3.org/2000/svg" xmlns:xlink="http://www.w3.org/1999/xlink" version="1.1" id="Capa_1" x="0px" y="0px" width="512px" height="512px" viewBox="0 0 585.225 585.225" style="enable-background:new 0 0 585.225 585.225;" xml:space="preserve">
<g>
	<g id="Layer_1_134_">
		<g>
			<path d="M489.6,36.975c-44.625,0-81.6,30.6-90.525,71.4H183.6c-10.2-40.8-47.175-71.4-90.525-71.4     C42.075,36.975,0,79.049,0,130.049c0,35.7,20.4,67.575,51,82.875V313.65c0,130.049,112.2,234.6,242.25,234.6     c130.051,0,242.25-104.551,242.25-234.6V212.924c29.324-15.3,49.725-47.175,49.725-82.875     C583.949,79.049,541.875,36.975,489.6,36.975z M169.575,229.5c0-14.025,11.475-26.775,26.775-26.775s26.775,11.475,26.775,26.775     s-11.475,26.775-26.775,26.775S169.575,244.799,169.575,229.5z M290.7,502.35c-48.45,0-89.25-52.275-89.25-116.025     s39.525-116.025,89.25-116.025c49.726,0,89.249,52.275,89.249,116.025S340.426,502.35,290.7,502.35z M386.324,256.274     c-15.299,0-26.773-11.475-26.773-26.775c0-14.025,11.475-26.775,26.773-26.775c14.025,0,26.775,11.475,26.775,26.775     S401.625,256.274,386.324,256.274z" fill="#788684"/>
			<path d="M244.8,337.875c-7.65,0-15.3,3.824-17.85,10.199c-2.55,7.65-1.275,15.301,3.825,20.4l45.9,45.9     c7.65,7.65,20.399,7.65,28.049,0l45.9-45.9c5.1-5.1,7.65-12.75,3.824-20.4c-2.549-7.65-10.199-10.199-17.85-10.199H244.8z" fill="#788684"/>
		</g>
	</g>
</g>
<g>
</g>
<g>
</g>
<g>
</g>
<g>
</g>
<g>
</g>
<g>
</g>
<g>
</g>
<g>
</g>
<g>
</g>
<g>
</g>
<g>
</g>
<g>
</g>
<g>
</g>
<g>
</g>
<g>
</g>
</svg>
